<svg fill="#DD5418" xmlns="http://www.w3.org/2000/svg" xmlns:xlink="http://www.w3.org/1999/xlink" version="1.1" x="0px" y="0px" viewBox="0 0 65 65" enable-background="new 0 0 65 65" xml:space="preserve"><g><path d="M62.7,48.7c-0.6-3.1-2.9-5.5-6-6.3l-9.9-2.3l-3.4-6.4c2-1.9,3.2-4.7,3.3-8c0.7-0.7,2.5-2.5,2.5-4.5c0-1.9-1.2-2.2-1.7-2.2   l0.3-2.8c0.2-3.4-1.2-4.8-2.3-5.4c1-1.5,0.8-2.5,0.7-2.7l-0.3-1l-0.9,0.6c-0.6,0.5-1.3,0.7-1.8,0.7c-0.4,0-0.6-0.1-0.6-0.1   c-2-1-6.3-1.2-6.5-1.3c-4.3,0-5.7,2.4-6.2,3.5c-0.5,0.1-1,0.2-1.4,0.5c-2.4-2.4-5.5-3.9-8.8-4.3l-0.2,1.5c3,0.4,5.7,1.7,7.9,3.8   c-0.7,1-1,2.4-1,3.6c-1.7-2.3-4.4-3.9-7.3-4.3l-0.2,1.5c3.3,0.4,6.2,2.6,7.4,5.7c0,0.1,0.1,0.2,0.1,0.3c0,0.1,0,0.3,0,0.4   c-0.5,0.1-1.5,0.5-1.5,2.2c0,1.4,0.8,2.7,1.6,3.6c-1.1,3.4-4.1,5.9-7.7,6.4l0.2,1.5c3.7-0.5,6.9-2.8,8.4-6.2   c0.1,1.5,0.5,2.9,1.1,4.1c-2.2,2.8-5.5,4.7-9.1,5.2l0.2,1.5c3.8-0.5,7.2-2.4,9.7-5.3c0.4,0.6,0.8,1.1,1.3,1.6l-3.4,6.6l-8.9,2.1   c-3.1,0.7-5.4,3.2-6,6.3l-2.2,11.8H65L62.7,48.7z M46.4,40.8L46.4,40.8L46.4,40.8L46.4,40.8z M29,25.6l0-0.3L28.7,25   c-0.6-0.5-2.2-2.2-2.2-3.5c0-0.7,0.2-0.7,0.3-0.7c0.4,0,0.7-0.2,0.9-0.4c0.2-0.3,0.3-0.6,0.3-1c-0.1-0.4-0.1-0.8-0.1-1.2   c0-0.3,0-0.6,0-1c-0.1-2.7,0-5,2.6-5.2l0.6,0l0.1-0.6c0,0,0.5-2.8,4.8-2.8c1.1,0.1,4.4,0.4,5.9,1.1c0.1,0,0.6,0.3,1.3,0.3   c0.3,0,0.7,0,1.1-0.2c-0.2,0.3-0.4,0.5-0.6,0.9l-0.9,1.1l1.4,0.2c0.1,0,2.2,0.3,2.1,4.2l-0.3,3.3c0,0.3,0.1,0.6,0.3,0.8   c0.2,0.2,0.5,0.3,0.8,0.3l0.2,0c0.1,0,0.1,0,0.2,0c0.2,0,0.3,0.4,0.3,0.7c0,1.4-1.6,3-2.2,3.5L45.2,25v0.3c0,5.4-3.4,9.4-8.1,9.4   C32.5,34.8,29,30.9,29,25.6z M27.9,41L27.9,41L27.9,41L27.9,41z M12,59.1l1.9-10c0.5-2.5,2.4-4.5,4.9-5.1l8.6-2l4.6,17.1H12z    M35.1,59.1l1-11.1H38l1,11.1H35.1z M34.8,44.5h4.6l-1.1,1.9h-2.4L34.8,44.5z M39.5,47.3l1.8-3.2c0.1-0.2,0.1-0.5,0-0.8   c-0.1-0.2-0.4-0.4-0.6-0.4h-7.2c-0.3,0-0.5,0.1-0.6,0.4c-0.1,0.2-0.1,0.5,0,0.8l1.8,3.2l-1.1,11.7h-0.1l-4.8-17.9l3.3-6.4   c1.5,1,3.2,1.5,5.1,1.5c2,0,3.7-0.6,5.2-1.6l3.3,6.2l-4.9,18.2h-0.1L39.5,47.3z M46.9,41.7l9.5,2.2c2.5,0.6,4.4,2.6,4.9,5.1   l1.9,10.1h-21L46.9,41.7z"></path><rect x="16.9" y="4.4" width="1.5" height="10.1"></rect><rect x="16.9" y="29.7" width="1.5" height="9.2"></rect><rect x="0" y="21.3" width="10.1" height="1.5"></rect><path d="M15.8,8.2l-0.2-1.5C8.7,7.6,3.2,13.1,2.3,20l1.5,0.2C4.6,14,9.6,9,15.8,8.2z"></path><path d="M15.8,36c-6.3-0.8-11.2-5.8-12-12.1l-1.5,0.2c0.9,7,6.4,12.5,13.3,13.4L15.8,36z"></path><path d="M6.9,20.6l1.5,0.2c0.6-4.2,3.9-7.5,8.1-8l-0.2-1.5C11.4,11.9,7.5,15.8,6.9,20.6z"></path><path d="M8.4,23.3l-1.5,0.2c0.6,4.9,4.5,8.7,9.4,9.4l0.2-1.5C12.2,30.8,8.9,27.5,8.4,23.3z"></path><path d="M22,22.1c0-2.4-1.9-4.3-4.3-4.3c-2.4,0-4.3,1.9-4.3,4.3s1.9,4.3,4.3,4.3C20,26.4,22,24.5,22,22.1z M17.7,24.9   c-1.5,0-2.8-1.3-2.8-2.8c0-1.5,1.3-2.8,2.8-2.8c1.5,0,2.8,1.3,2.8,2.8C20.5,23.6,19.2,24.9,17.7,24.9z"></path></g></svg>