<svg fill="#DD5418" xmlns="http://www.w3.org/2000/svg" xmlns:xlink="http://www.w3.org/1999/xlink" version="1.1" x="0px" y="0px" viewBox="0 0 65 65" enable-background="new 0 0 65 65" xml:space="preserve"><g><rect x="50.4" y="32.6" width="1.5" height="1.6"></rect><rect x="43" y="35.7" transform="matrix(-0.707 -0.7072 0.7072 -0.707 48.9907 93.1227)" width="1.6" height="1.5"></rect><rect x="39.9" y="43" width="1.6" height="1.5"></rect><rect x="43" y="50.3" transform="matrix(-0.7071 -0.7071 0.7071 -0.7071 38.6031 118.2198)" width="1.5" height="1.6"></rect><rect x="50.4" y="53.3" width="1.5" height="1.6"></rect><rect x="57.7" y="50.4" transform="matrix(-0.7073 -0.707 0.707 -0.7073 63.7201 128.6149)" width="1.6" height="1.5"></rect><rect x="60.7" y="43" width="1.6" height="1.5"></rect><rect x="57.7" y="35.6" transform="matrix(-0.7071 -0.7071 0.7071 -0.7071 74.0994 103.5177)" width="1.5" height="1.6"></rect><path d="M53.7,43.8c0-1.1-0.8-2.1-1.8-2.4v-5.8h-1.5v5.8c-1,0.3-1.8,1.3-1.8,2.4c0,1.4,1.1,2.6,2.5,2.6c0.4,0,0.8-0.1,1.2-0.3l3,3   l1.1-1.1l-3-3C53.6,44.6,53.7,44.2,53.7,43.8z M50.1,43.8c0-0.6,0.5-1.1,1.1-1.1c0.6,0,1.1,0.5,1.1,1.1c0,0.3-0.1,0.6-0.3,0.7   c-0.2,0.2-0.5,0.3-0.7,0.3C50.6,44.8,50.1,44.3,50.1,43.8z"></path><path d="M57.4,31.4v-21h-6.5V7.4h-1.5v3.1h-7.1V7.4h-1.5v3.1h-7.1V7.4h-1.5v3.1h-7.1V7.4h-1.5v3.1h-7.1V7.4h-1.5v3.1H8V7.4H6.5v3.1   H0v41h39.6c2.5,3.7,6.7,6.2,11.5,6.2c7.6,0,13.9-6.2,13.9-13.9C65,38.4,61.9,33.7,57.4,31.4z M6.5,11.9v1.5H8v-1.5h7.1v1.5h1.5   v-1.5h7.1v1.5h1.5v-1.5h7.1v1.5h1.5v-1.5h7.1v1.5h1.5v-1.5h7.1v1.5h1.5v-1.5h5v4.5H1.5v-4.5H6.5z M1.5,49.9v-32h54.4v12.8   c-1.1-0.4-2.3-0.7-3.6-0.8v-8.5H38.1v11.8h3.9c-2.9,2.5-4.8,6.3-4.8,10.5c0,2.2,0.5,4.3,1.5,6.2H1.5z M44.2,31.8h-4.5V23h11.2v6.9   C48.4,30,46.1,30.7,44.2,31.8z M51.1,56.1c-6.8,0-12.4-5.6-12.4-12.4s5.6-12.4,12.4-12.4c6.8,0,12.4,5.6,12.4,12.4   S58,56.1,51.1,56.1z"></path><polygon points="26.9,28.3 25.8,26.7 24.6,27.5 26.5,30.3 32.7,26.1 31.8,24.9  "></polygon><polygon points="10.4,41.4 9.3,39.9 8,40.7 10,43.5 16.1,39.3 15.3,38  "></polygon><path d="M5.1,33.3h14.2V21.5H5.1V33.3z M6.6,23h11.2v8.8H6.6V23z"></path><path d="M21.6,33.3h14.2V21.5H21.6V33.3z M23.1,23h11.2v8.8H23.1V23z"></path><path d="M5.1,46.5h14.2V34.7H5.1V46.5z M6.6,36.2h11.2V45H6.6V36.2z"></path><path d="M21.6,46.5h14.2V34.7H21.6V46.5z M23.1,36.2h11.2V45H23.1V36.2z"></path></g></svg>