<?xml version="1.0" encoding="utf-8"?>
<!-- Generator: Adobe Illustrator 22.0.0, SVG Export Plug-In . SVG Version: 6.00 Build 0)  -->
<svg version="1.1" id="图层_1" xmlns="http://www.w3.org/2000/svg" xmlns:xlink="http://www.w3.org/1999/xlink" x="0px" y="0px"
	 viewBox="0 0 255 256" style="enable-background:new 0 0 255 256;" xml:space="preserve">
<style type="text/css">
	.st0{clip-path:url(#SVGID_2_);fill:url(#SVGID_3_);}
</style>
<g>
	<defs>
		<path id="SVGID_1_" d="M60.2,198.9l28-12.4l37.7,16.5c1.1,0.5,2.4,0.5,3.6,0l37.7-16.5l28,12.3l-67.6,29.7L60.2,198.9z
			 M178.5,181.6l23.3-10.2v20.5L178.5,181.6z M92.7,178.7l0-25l30.6,13.5v25L92.7,178.7z M53.8,136.5l29.9,13.2l0,29l-30,13.2
			L53.8,136.5z M99.4,146.8l28.4-12.5l28.4,12.5l-28.4,12.5L99.4,146.8z M11.9,143.3l0-25.1l32.9,14.4v25.1L11.9,143.3z
			 M132.3,167.1l111.2-49v25.2l-111.2,48.8V167.1z M210.8,99.8l26.1,11.4l-26.1,11.5V99.8z M60.2,129.5l67.6-31.3l67.6,31.3
			l-28.1,12.4l-37.7-16.6c-1.1-0.5-2.5-0.5-3.6,0l-37.8,16.6L60.2,129.5z M172.8,109.2l0-30l29-13.5v26.6c0,0.3,0,0.6,0,1l0,29.3
			L172.8,109.2z M53.8,65.6l23.3,10.3L53.8,86.1V65.6z M132.3,90.4v-25l31.6,13.9l0,25.8L132.3,90.4z M18.6,111.3l104.7-45.9v25
			l-74.1,34.3L18.6,111.3z M60.4,58.7l67.4-29.7l67.6,29.8l-27.1,12.6l-38.7-17c-0.4-0.2-0.8-0.3-0.9-0.3l-0.8-0.3L88.3,71
			L60.4,58.7z M126,20.1L47.3,54.7L46.8,55c-0.4,0.2-0.7,0.6-0.9,0.9l-0.4,0.5c-0.4,0.7-0.7,1.5-0.7,2.3V90L5.6,107.2L4,108.5
			L3.6,109c-0.4,0.7-0.7,1.5-0.7,2.3v34.8c0,1.8,1.1,3.4,2.7,4.1l39.2,17.2l0,31.5c0,1.8,1.1,3.4,2.7,4.1l78.4,34.5
			c0.6,0.3,1.2,0.4,1.8,0.4c0.6,0,1.2-0.1,1.8-0.4l78.5-34.6c1.8-0.8,2.7-2.7,2.7-4.3v-31.3l39-17.1c1.6-0.7,2.7-2.3,2.7-4.1l0-35.2
			l0-0.4c-0.1-0.4-0.2-0.8-0.5-1.4l-0.4-0.6c-0.2-0.2-0.4-0.5-0.6-0.7l-40.2-18l0-31.5l-0.1-0.5c-0.1-0.6-0.3-1.1-0.6-1.6
			c-0.1-0.2-0.3-0.5-0.5-0.6c-0.2-0.2-0.5-0.5-0.9-0.8l-79.1-34.9c-0.6-0.3-1.2-0.4-1.8-0.4C127.2,19.7,126.6,19.8,126,20.1"/>
	</defs>
	<clipPath id="SVGID_2_">
		<use xlink:href="#SVGID_1_"  style="overflow:visible;"/>
	</clipPath>
	
		<linearGradient id="SVGID_3_" gradientUnits="userSpaceOnUse" x1="-267.9231" y1="434.4234" x2="-266.2348" y2="434.4234" gradientTransform="matrix(126.5342 -64.0007 -64.0007 -126.5342 61725.7734 38005.0039)">
		<stop  offset="0" style="stop-color:#EA550F"/>
		<stop  offset="0.3609" style="stop-color:#D84014"/>
		<stop  offset="1" style="stop-color:#B11120"/>
	</linearGradient>
	<polygon class="st0" points="-85,64.2 201.7,-80.8 340.4,193.5 53.8,338.5 	"/>
</g>
</svg>
