<?xml version="1.0" standalone="no"?>
<!DOCTYPE svg PUBLIC "-//W3C//DTD SVG 20010904//EN"
 "http://www.w3.org/TR/2001/REC-SVG-20010904/DTD/svg10.dtd">
<svg version="1.0" xmlns="http://www.w3.org/2000/svg"
 width="512.000000pt" height="512.000000pt" viewBox="0 0 512.000000 512.000000"
 preserveAspectRatio="xMidYMid meet">
<metadata>
Created by potrace 1.11, written by Peter Selinger 2001-2013
</metadata>
<g transform="translate(0.000000,512.000000) scale(0.100000,-0.100000)"
fill="#000000" stroke="none">
<path d="M2355 4641 c-110 -48 -220 -97 -245 -108 -25 -11 -74 -33 -110 -48
-36 -15 -83 -36 -105 -46 -79 -36 -245 -109 -249 -109 -3 0 -37 -15 -78 -34
-40 -18 -107 -48 -148 -66 -41 -18 -100 -44 -130 -57 -30 -14 -101 -45 -157
-69 -56 -24 -110 -47 -120 -52 -10 -6 -31 -16 -47 -23 -60 -28 -61 -34 -61
-387 l0 -322 -140 -61 c-77 -34 -164 -72 -193 -85 -29 -13 -80 -36 -115 -50
-34 -15 -93 -41 -132 -58 -38 -18 -100 -45 -138 -61 -77 -32 -117 -67 -117
-101 -1 -31 -1 -629 0 -693 0 -37 5 -54 23 -71 12 -12 200 -99 417 -194 l395
-173 0 -331 c1 -314 2 -332 20 -353 22 -23 38 -31 285 -139 91 -40 183 -80
205 -90 22 -10 60 -27 85 -38 25 -11 160 -70 300 -132 140 -62 269 -118 285
-125 17 -8 113 -50 215 -95 102 -44 194 -85 205 -90 53 -25 72 -20 342 99 148
65 288 127 313 138 25 12 73 33 107 47 35 14 89 38 120 52 32 15 72 32 88 39
27 12 345 153 440 195 22 9 78 34 125 54 128 56 133 59 158 84 26 28 24 -3 26
377 l1 309 360 157 c198 86 367 160 375 163 37 15 76 44 86 64 7 15 11 144 11
393 1 364 0 371 -21 395 -20 23 -82 53 -586 276 -113 50 -209 95 -215 100 -6
6 -10 131 -10 333 0 307 -1 324 -20 345 -20 23 -37 31 -230 115 -66 29 -145
64 -175 78 -30 13 -149 66 -265 117 -262 115 -238 105 -555 245 -315 140 -399
175 -414 175 -6 0 -101 -40 -211 -89z m326 -152 c63 -28 200 -88 304 -134 105
-45 215 -94 245 -108 30 -13 109 -48 175 -77 66 -29 143 -63 170 -75 28 -13
114 -51 193 -85 79 -35 140 -66 135 -70 -14 -12 -515 -243 -527 -243 -9 0
-504 214 -713 309 -92 42 -80 44 -356 -75 -140 -61 -279 -121 -309 -135 -29
-13 -92 -40 -141 -60 -86 -36 -87 -36 -120 -19 -17 9 -36 18 -42 19 -5 1 -41
17 -80 35 -38 18 -72 33 -75 34 -3 0 -76 32 -163 70 l-158 70 44 20 c24 11 63
29 88 39 24 10 77 34 117 53 41 18 75 33 77 33 2 0 43 18 90 40 47 22 88 40
91 40 2 0 50 21 106 46 132 58 153 67 212 94 28 12 147 64 265 116 119 52 223
98 231 103 22 14 18 15 141 -40z m-1203 -854 c55 -25 79 -45 52 -45 -5 0 -33
-11 -62 -24 -125 -56 -354 -155 -367 -158 -12 -2 -14 31 -15 198 l-1 200 165
-72 c91 -39 193 -84 228 -99z m997 -70 c0 -147 -4 -248 -10 -254 -6 -5 -71
-37 -145 -71 -74 -34 -160 -74 -190 -87 -30 -14 -102 -47 -158 -74 -57 -27
-105 -49 -107 -49 -4 0 -276 -128 -297 -140 -10 -6 -25 -10 -33 -10 -8 0 -15
-4 -15 -10 0 -5 -5 -10 -12 -10 -6 0 -39 -13 -72 -29 -34 -16 -88 -41 -121
-56 -93 -43 -205 -94 -261 -121 -28 -13 -55 -24 -61 -24 -6 0 -41 14 -79 31
-128 56 -113 50 -349 153 -72 32 -141 62 -155 67 -31 13 -38 9 172 101 90 39
179 78 198 86 19 9 37 16 40 17 3 1 28 12 55 24 28 13 64 29 80 36 17 7 50 22
75 33 25 11 68 30 95 42 28 13 86 38 129 57 44 19 94 40 110 48 118 53 171 75
182 75 8 0 14 5 14 10 0 6 6 10 14 10 8 0 52 17 98 39 45 21 111 51 145 65 35
14 86 37 115 50 29 13 96 42 148 65 52 22 160 70 240 105 80 35 147 65 150 65
3 1 6 -109 5 -244z m390 155 c61 -26 133 -57 160 -70 28 -12 59 -26 70 -31 11
-4 59 -26 107 -48 l87 -40 0 -248 c-1 -136 -3 -251 -6 -256 -2 -4 -16 -1 -31
7 -15 8 -63 32 -107 52 -44 20 -120 55 -170 78 -49 23 -119 56 -155 72 -36 16
-87 40 -115 54 l-50 25 -1 235 c0 129 2 240 4 247 2 8 17 6 50 -9 26 -11 97
-42 157 -68z m1181 -481 c0 -305 -1 -557 -3 -561 -4 -7 -60 18 -353 155 -30
14 -93 43 -140 64 l-85 39 1 292 c1 161 2 296 3 301 1 5 16 16 34 24 17 8 77
36 132 62 183 85 269 126 330 155 33 15 65 27 70 26 7 -2 10 -196 11 -557z
m-1249 -190 c120 -56 245 -114 278 -129 33 -15 103 -48 155 -72 52 -24 227
-105 387 -179 161 -74 293 -136 293 -139 0 -3 -21 -14 -48 -24 -26 -11 -78
-34 -117 -51 -38 -18 -104 -47 -145 -65 -41 -18 -109 -48 -150 -67 -88 -41
-94 -42 -140 -21 -19 9 -109 49 -200 88 -91 40 -178 78 -194 86 -16 8 -35 14
-43 14 -7 0 -13 5 -13 10 0 6 -7 10 -15 10 -8 0 -23 4 -33 10 -48 28 -228 100
-247 100 -12 0 -38 -7 -56 -15 -19 -8 -191 -84 -384 -168 l-350 -154 -35 15
c-19 8 -53 22 -75 32 -22 10 -123 55 -225 100 -102 45 -193 86 -204 92 -18 10
13 25 374 190 25 11 90 42 145 68 114 54 179 84 355 165 210 96 280 128 359
167 42 20 84 37 93 37 9 1 115 -45 235 -100z m1574 13 c25 -11 70 -31 100 -45
30 -13 83 -37 119 -52 36 -15 85 -37 110 -47 l44 -20 -64 -31 c-130 -61 -444
-196 -450 -192 -4 2 -5 404 -1 437 1 7 47 -9 142 -50z m-4083 -322 c9 -5 80
-37 157 -70 77 -34 154 -67 170 -75 66 -30 130 -58 135 -59 3 -1 39 -16 80
-34 l76 -34 -1 -249 c0 -286 14 -261 -110 -204 -38 17 -88 39 -110 49 -22 9
-129 56 -239 104 l-198 87 0 158 c2 376 -1 350 40 327z m4591 -239 l-1 -248
-86 -38 c-48 -21 -107 -46 -132 -57 -25 -11 -58 -26 -75 -33 -16 -8 -93 -41
-170 -75 -310 -137 -505 -220 -515 -220 -5 0 -10 -4 -10 -9 0 -5 -12 -12 -26
-15 -14 -4 -60 -23 -102 -42 -42 -20 -103 -47 -135 -60 -32 -14 -87 -38 -122
-54 -35 -16 -93 -41 -127 -56 -35 -14 -85 -36 -113 -49 -105 -48 -581 -254
-594 -257 -13 -3 -15 33 -16 242 l0 245 35 17 c19 9 78 35 130 58 52 23 115
51 140 63 25 11 47 21 50 21 3 1 39 16 80 34 90 41 120 54 183 81 26 12 68 31
95 43 26 12 49 22 52 23 11 4 60 25 133 58 42 20 77 33 77 29 0 -4 4 -2 8 4 4
5 32 20 62 33 65 27 262 113 340 148 30 14 208 92 395 175 187 82 358 158 380
169 22 10 45 18 52 19 9 0 12 -60 12 -249z m-2199 -117 c58 -25 129 -57 158
-70 29 -13 54 -24 56 -24 3 0 37 -15 78 -33 40 -19 92 -42 116 -52 l43 -18
-68 -33 c-37 -17 -92 -42 -122 -55 -30 -13 -126 -56 -215 -95 l-161 -71 -65
30 c-71 32 -102 45 -170 75 -95 41 -166 73 -182 82 -10 6 -25 10 -33 10 -8 0
-15 5 -15 10 0 6 -8 10 -17 10 -10 1 -33 9 -51 18 l-33 18 43 18 c24 11 75 32
113 49 39 16 88 38 110 48 132 60 291 128 300 129 6 0 58 -21 115 -46z m-1335
-109 c44 -19 109 -48 115 -50 10 -4 88 -38 155 -69 l70 -32 0 -287 c0 -157 -3
-288 -5 -290 -7 -6 -74 -36 -337 -151 -95 -41 -190 -84 -212 -94 -35 -17 -40
-18 -43 -3 -3 13 -2 1062 1 1083 1 5 71 -24 256 -107z m804 -355 c150 -66 284
-125 299 -132 l27 -13 0 -248 c0 -285 16 -259 -119 -198 -44 20 -172 77 -285
126 l-206 90 0 248 c0 136 2 247 6 247 3 0 128 -54 278 -120z m1897 -430 c0
-230 10 -216 -108 -161 -103 47 -185 84 -270 121 -43 18 -78 36 -78 40 0 3 19
13 43 22 38 15 224 95 272 118 27 12 107 46 125 53 8 3 15 6 15 6 1 1 1 -89 1
-199z m-2200 -131 c166 -73 204 -90 374 -164 85 -37 180 -79 210 -92 130 -59
133 -60 228 -17 29 13 55 24 57 24 3 0 39 16 81 35 41 19 77 35 79 35 2 0 34
14 72 31 88 40 102 46 268 118 l140 61 150 -66 c183 -81 228 -101 328 -144 73
-32 76 -35 55 -46 -13 -7 -149 -67 -303 -134 -154 -67 -304 -133 -333 -146
-28 -13 -53 -24 -55 -23 -2 0 -50 -22 -215 -97 -29 -13 -54 -24 -57 -24 -2 0
-37 -16 -79 -35 -41 -19 -122 -55 -180 -79 l-105 -45 -183 80 c-101 44 -201
88 -223 98 -22 11 -146 65 -275 121 -129 57 -257 113 -285 126 -27 12 -108 47
-180 78 -71 31 -138 61 -147 66 -10 6 -25 10 -33 10 -8 0 -15 3 -15 8 0 6 377
177 515 233 22 10 41 17 41 18 1 1 32 -13 70 -30z"/>
</g>
</svg>
