<?xml version="1.0" encoding="utf-8"?>
<!-- Generator: Adobe Illustrator 22.0.0, SVG Export Plug-In . SVG Version: 6.00 Build 0)  -->
<svg version="1.0" id="图层_1" xmlns="http://www.w3.org/2000/svg" xmlns:xlink="http://www.w3.org/1999/xlink" x="0px" y="0px"
	 viewBox="0 0 151 52" style="enable-background:new 0 0 151 52;" xml:space="preserve">
<style type="text/css">
	.st0{clip-path:url(#SVGID_2_);fill:url(#SVGID_3_);}
	.st1{clip-path:url(#SVGID_5_);fill:url(#SVGID_6_);}
	.st2{clip-path:url(#SVGID_8_);fill:url(#SVGID_9_);}
</style>
<g>
	<g>
		<path d="M102.8,7.6c-4.7,0-8.6,3.9-8.6,8.6c0,1.7,0.5,3.3,1.4,4.7c0.8-0.5,1.5-1.2,2-2c-0.4-0.8-0.7-1.8-0.7-2.7
			c0-3.2,2.6-5.9,5.9-5.9c3.2,0,5.9,2.6,5.9,5.9c0,3.2-2.6,5.9-5.9,5.9c-0.7,0-1.5-0.1-2.1-0.4c-0.5,0.8-1,1.6-1.7,2.2
			c1.2,0.6,2.5,0.9,3.9,0.9c4.7,0,8.6-3.9,8.6-8.6C111.4,11.5,107.6,7.6,102.8,7.6"/>
		<g>
			<defs>
				<path id="SVGID_1_" d="M83.2,16.2c0,2.2,0.8,4.3,2.2,5.8c-0.8-1.2-1.3-2.7-1.3-4.3c0-4.1,3.3-7.4,7.4-7.4c0.2,0,0.3,0,0.5,0
					c0.5,0,1,0.1,1.5,0.3c0.5-0.8,1.2-1.6,1.9-2.2c-1.2-0.5-2.4-0.8-3.7-0.8C87.1,7.6,83.2,11.5,83.2,16.2"/>
			</defs>
			<clipPath id="SVGID_2_">
				<use xlink:href="#SVGID_1_"  style="overflow:visible;"/>
			</clipPath>
			
				<linearGradient id="SVGID_3_" gradientUnits="userSpaceOnUse" x1="-316.5867" y1="333.5078" x2="-316.3207" y2="333.5078" gradientTransform="matrix(64.329 -16.3301 -16.3301 -64.329 25896.0645 16300.4805)">
				<stop  offset="0" style="stop-color:#EA550F"/>
				<stop  offset="1" style="stop-color:#B11120"/>
			</linearGradient>
			<polygon class="st0" points="79.8,8.5 94.8,4.7 98.9,21.2 84,24.9 			"/>
		</g>
		<g>
			<defs>
				<path id="SVGID_4_" d="M84.1,17.8c0,1.6,0.5,3.1,1.3,4.3c1.6,1.7,3.8,2.8,6.4,2.8c1.3,0,2.6-0.3,3.7-0.8
					c2.8-1.3,4.7-4.1,4.9-7.3l0-0.2h-1.6h-1.1l0,0.2c-0.2,3.1-2.8,5.4-5.9,5.4c-3.2,0-5.9-2.6-5.9-5.9c0-3.2,2.6-5.9,5.9-5.9
					c0.1,0,0.1,0,0.2,0c-0.2,0-0.3,0-0.5,0C87.4,10.3,84.1,13.7,84.1,17.8"/>
			</defs>
			<clipPath id="SVGID_5_">
				<use xlink:href="#SVGID_4_"  style="overflow:visible;"/>
			</clipPath>
			
				<linearGradient id="SVGID_6_" gradientUnits="userSpaceOnUse" x1="-322.7621" y1="331.2397" x2="-322.4962" y2="331.2397" gradientTransform="matrix(-60.0356 -4.107 -4.107 60.0356 -17919.2969 -21193.8066)">
				<stop  offset="0" style="stop-color:#EA550F"/>
				<stop  offset="1" style="stop-color:#B11120"/>
			</linearGradient>
			<polygon class="st1" points="100.4,26 83.1,24.8 84.2,9.2 101.4,10.4 			"/>
		</g>
		<rect x="77.4" y="8.4" width="3.1" height="16"/>
		<path d="M121.7,7.9c-1.5,0-3,0.6-4.2,1.9l-0.5,0.5v-2h-3.2v16h3.2v-7.7c0-2.1,0.3-3.6,0.8-4.5c0.6-0.9,1.6-1.4,2.9-1.4
			c1.2,0,2.1,0.4,2.6,1.1c0.5,0.7,0.7,1.8,0.7,3.6v9h3.2v-9.9c0-2.3-0.4-3.9-1.3-4.9C124.9,8.5,123.5,7.9,121.7,7.9"/>
		<rect x="130.3" y="8.4" width="3.1" height="16"/>
		<path d="M150.6,8.4h-12.3v3h6.6l-8.2,12.9c0,0,0,0.1,0.1,0.1h13.4v-3h-7.7L150.6,8.4z"/>
	</g>
	<g>
		<path d="M84.3,39.4c0.2-0.4,0.3-0.8,0.4-1.2l0-0.1l-0.7-0.2l0,0.1c-0.1,0.3-0.3,0.7-0.4,1.1c-0.2,0.4-0.3,0.8-0.5,1.2
			c-0.2,0.4-0.4,0.8-0.6,1.2c-0.2,0.4-0.4,0.7-0.6,1.1l0,0.1l0.7,0.3l0-0.1c0.2-0.3,0.4-0.7,0.6-1.1c0.2-0.4,0.4-0.8,0.6-1.2
			C84,40.2,84.2,39.8,84.3,39.4z"/>
		<path d="M82.3,38.9l0.5-0.4l-0.1-0.1c-0.1-0.1-0.2-0.3-0.4-0.5l-0.5-0.5c-0.2-0.2-0.3-0.4-0.4-0.5c-0.1-0.2-0.3-0.3-0.4-0.4
			L81,36.4l-0.4,0.4v-1.9h1.9v-0.7h-1.9v-2.9h-0.7v2.9h-2.2v0.7h2.1c-0.1,0.4-0.3,0.8-0.4,1.2c-0.2,0.5-0.4,0.9-0.6,1.4
			c-0.2,0.5-0.4,0.9-0.7,1.3c-0.2,0.4-0.5,0.8-0.7,1.1l0,0l0.3,0.7l0.1-0.1c0.2-0.3,0.4-0.6,0.6-1c0.2-0.4,0.4-0.7,0.6-1.1
			c0.2-0.4,0.4-0.8,0.5-1.2c0.1-0.2,0.2-0.5,0.3-0.7v7.6h0.7V37c0.1,0.1,0.2,0.2,0.3,0.4c0.1,0.2,0.3,0.3,0.4,0.5
			c0.2,0.2,0.3,0.4,0.4,0.5C82,38.6,82.1,38.7,82.3,38.9L82.3,38.9z"/>
		<path d="M82.4,36.7h3.7v5.5c0,0.2,0,0.3,0,0.5c0,0.1-0.1,0.2-0.1,0.3c-0.1,0.1-0.2,0.1-0.3,0.1c-0.1,0-0.3,0-0.5,0h-1.4l0.2,0.7
			h1.4c0.3,0,0.5,0,0.7-0.1c0.2,0,0.4-0.1,0.5-0.2c0.1-0.1,0.2-0.3,0.3-0.4c0-0.2,0.1-0.4,0.1-0.6v-5.7h3.9v-0.7h-8.3V36.7z"/>
		<path d="M90.2,41.5c-0.2-0.4-0.4-0.8-0.6-1.3c-0.2-0.4-0.4-0.9-0.6-1.3c-0.2-0.4-0.3-0.7-0.5-1l0-0.1L88,38.2l0.5,1.1
			c0.2,0.4,0.4,0.8,0.6,1.3c0.2,0.4,0.4,0.9,0.5,1.3c0.2,0.4,0.3,0.8,0.4,1.1l0,0.1l0.7-0.3l0-0.1C90.6,42.3,90.4,41.9,90.2,41.5z"
			/>
		<rect x="83.1" y="32.4" width="7.1" height="0.7"/>
		<path d="M99.8,38c0,0.1,0,0.1-0.1,0.2l-0.1,0.3c-0.1,0.3-0.2,0.6-0.3,1c-0.1,0.4-0.2,0.7-0.4,1.1l-0.4,1.1
			c-0.1,0.4-0.2,0.7-0.3,0.9c-0.1,0.3-0.2,0.5-0.2,0.5l0,0.1l0.7,0.2l0-0.1c0-0.1,0.1-0.3,0.2-0.5c0.1-0.3,0.2-0.6,0.3-0.9
			c0.1-0.4,0.2-0.7,0.4-1.1c0.1-0.4,0.3-0.8,0.4-1.1c0.1-0.4,0.2-0.7,0.3-0.9l0.2-0.6L99.8,38L99.8,38z"/>
		<path d="M106.9,39.8h3.2v-0.7h-3.2V37h3.2v-0.6h-3.2v-2.1h3.5v-0.7h-3.3l0.6-0.4l0-0.1c-0.1-0.1-0.2-0.3-0.3-0.4
			c-0.1-0.2-0.2-0.3-0.4-0.5l-0.1-0.1c-0.1-0.2-0.2-0.3-0.4-0.5c-0.1-0.2-0.3-0.4-0.4-0.5l0-0.1l-0.6,0.3l0.1,0.1
			c0.1,0.2,0.2,0.3,0.4,0.5l0.4,0.6c0.1,0.2,0.3,0.4,0.4,0.5c0.1,0.2,0.2,0.3,0.3,0.4l0,0.1h-3.9c0.2-0.4,0.3-0.7,0.4-1.1
			c0.1-0.4,0.3-0.8,0.4-1.2l0-0.1l-0.7-0.1l0,0.1c-0.3,1.1-0.7,2.1-1.2,3.1c-0.5,1-1.1,2-1.9,2.8l0,0.1l0.5,0.6l0.1-0.1
			c0.3-0.4,0.6-0.8,0.9-1.2c0.2-0.3,0.4-0.7,0.6-1v8.7h0.7v-1.3h7.6v-0.7h-3.7V39.8z M106.2,39.8v2.3H103v-2.3H106.2z M106.2,37v2.1
			H103V37H106.2z M106.2,34.2v2.1H103v-2.1H106.2z"/>
		<path d="M98.6,32.8c0.2,0.3,0.3,0.6,0.5,1c0.2,0.3,0.4,0.7,0.5,1c0.2,0.3,0.3,0.6,0.4,0.8l0,0.1l0.7-0.3l0-0.1
			c-0.1-0.2-0.3-0.5-0.4-0.8c-0.2-0.3-0.3-0.7-0.5-1c-0.2-0.3-0.4-0.7-0.5-1c-0.2-0.3-0.3-0.6-0.4-0.8l0-0.1L98.1,32l0,0.1
			C98.3,32.3,98.4,32.5,98.6,32.8z"/>
		<path d="M118.8,32.4c0.2,0.1,0.4,0.3,0.7,0.5c0.2,0.2,0.5,0.3,0.7,0.5c0.2,0.2,0.4,0.3,0.6,0.4l0.1,0.1l0.4-0.6l-0.1,0
			c-0.2-0.1-0.3-0.2-0.6-0.4c-0.2-0.2-0.4-0.3-0.7-0.5c-0.2-0.2-0.5-0.3-0.7-0.4c-0.2-0.1-0.4-0.3-0.6-0.4l-0.1-0.1l-0.4,0.5l0.1,0
			C118.4,32.1,118.5,32.2,118.8,32.4z"/>
		<path d="M121.8,34.9c0.5-0.5,1-1.1,1.4-1.7h5.6c0,0.1-0.1,0.2-0.2,0.3c-0.1,0.2-0.2,0.3-0.3,0.4c-0.1,0.1-0.2,0.3-0.3,0.4
			c-0.1,0.1-0.2,0.2-0.3,0.3l-0.1,0.1l0.6,0.2l0,0c0.1-0.1,0.2-0.2,0.3-0.4c0.1-0.1,0.2-0.3,0.3-0.5c0.1-0.2,0.2-0.3,0.3-0.5
			c0.1-0.2,0.2-0.3,0.2-0.5l0-0.6h-5.9c0.2-0.4,0.4-0.8,0.6-1.2l0-0.1l-0.7-0.1l0,0.1c-0.3,0.6-0.6,1.2-1,1.8
			c-0.4,0.5-0.8,1.1-1.3,1.6l-0.1,0.1L121.8,34.9L121.8,34.9z"/>
		<path d="M128.6,36.2c-0.5-0.2-1-0.3-1.4-0.5c-0.4-0.2-0.7-0.4-1-0.6c-0.2-0.2-0.5-0.5-0.6-0.7l0-0.1c0-0.1,0-0.2,0.1-0.3
			c0-0.1,0-0.2,0.1-0.3l0-0.1H125l0,0.1c0,0.1,0,0.2-0.1,0.3c0,0.1,0,0.2-0.1,0.3c-0.1,0.3-0.2,0.5-0.4,0.8
			c-0.2,0.2-0.4,0.5-0.8,0.7c-0.3,0.2-0.8,0.4-1.3,0.6c-0.5,0.2-1.2,0.4-1.9,0.5l-0.1,0l0.3,0.6l0.1,0c1.3-0.3,2.3-0.6,3.1-1
			c0.7-0.4,1.2-0.8,1.5-1.3c0.2,0.2,0.4,0.5,0.6,0.7c0.3,0.2,0.6,0.4,1,0.6c0.4,0.2,0.9,0.4,1.4,0.5c0.5,0.2,1.1,0.3,1.8,0.5l0.1,0
			l0.3-0.6l-0.1,0C129.7,36.5,129.1,36.4,128.6,36.2z"/>
		<path d="M118.1,37.3c0.1-0.1,0.3-0.3,0.6-0.5c0.3-0.2,0.6-0.5,0.9-0.7c0.3-0.3,0.6-0.5,0.9-0.7l0.1-0.1c0.2-0.2,0.4-0.3,0.5-0.4
			l0.1-0.1l-0.4-0.5l-0.1,0.1c-0.1,0.1-0.1,0.1-0.3,0.3c-0.2,0.1-0.3,0.3-0.5,0.4l-0.6,0.5c-0.2,0.2-0.4,0.3-0.6,0.5
			c-0.2,0.1-0.4,0.3-0.5,0.4c-0.2,0.1-0.3,0.2-0.4,0.3l-0.1,0L118.1,37.3L118.1,37.3z"/>
		<path d="M128.8,42.7c-0.5-0.2-1.1-0.4-1.6-0.6c-0.6-0.2-1.1-0.4-1.7-0.6c-0.5-0.2-0.9-0.3-1.3-0.5c0.1-0.3,0.2-0.6,0.3-1l0.1-1
			h-0.8l-0.1,1c0,0.3-0.1,0.7-0.3,0.9c-0.2,0.3-0.5,0.5-0.9,0.8c-0.4,0.3-1,0.5-1.7,0.7c-0.7,0.2-1.6,0.5-2.7,0.7l-0.1,0l0.3,0.7
			l0.1,0c0.8-0.2,1.4-0.4,2-0.6c0.6-0.2,1.1-0.4,1.6-0.6c0.4-0.2,0.8-0.4,1.1-0.6c0.3-0.2,0.5-0.4,0.7-0.6c0.4,0.1,0.8,0.3,1.3,0.5
			c0.5,0.2,1.1,0.4,1.7,0.7c0.6,0.2,1.1,0.5,1.7,0.7l1.4,0.6l0.3-0.7l-0.1,0C129.7,43.1,129.3,42.9,128.8,42.7z"/>
		<polygon points="128.4,41.6 128.4,37.9 119.7,37.9 119.7,41.6 120.4,41.6 120.4,38.5 127.7,38.5 127.7,41.6 		"/>
		<path d="M150.6,41.3c-0.7-0.5-1.3-1-1.8-1.5c-0.5-0.5-1-1.1-1.5-1.6c-0.4-0.6-0.8-1.2-1.2-1.8c-0.3-0.6-0.6-1.2-0.9-1.9h4.9v-0.7
			h-5.8v-2.6h-0.7v2.6h-5.7v0.7h4.9c-0.3,0.7-0.6,1.3-0.9,1.8c-0.3,0.6-0.7,1.2-1.2,1.8c-0.4,0.6-0.9,1.1-1.5,1.7
			c-0.5,0.6-1.2,1.1-1.8,1.7l-0.1,0.1l0.5,0.6l0.1-0.1c0.7-0.6,1.4-1.3,1.9-1.9c0.6-0.6,1.1-1.2,1.5-1.8c0.4-0.6,0.8-1.3,1.2-1.9
			c0.3-0.6,0.6-1.3,0.9-2h0.2v6.3h-3.3v0.7h3.3v2.8h0.7v-2.8h3.4v-0.7h-3.4v-6.3h0.1c0.5,1.5,1.3,2.8,2.2,4.1
			c0.9,1.3,2.1,2.4,3.4,3.4l0.1,0.1L150.6,41.3L150.6,41.3z"/>
	</g>
</g>
<g>
	<defs>
		<path id="SVGID_7_" d="M14.6,42.5l6.7-2.9l9,3.9c0.3,0.1,0.6,0.1,0.9,0l9-3.9l6.7,2.9l-16,7.1L14.6,42.5z M42.7,38.4l5.5-2.4v4.9
			L42.7,38.4z M22.3,37.7l0-5.9l7.3,3.2v5.9L22.3,37.7z M13.1,27.7l7.1,3.1l0,6.9l-7.1,3.1L13.1,27.7z M23.9,30.2l6.8-3l6.7,3
			l-6.7,3L23.9,30.2z M3.1,29.3l0-6l7.8,3.4v6L3.1,29.3z M31.7,35l26.4-11.6v6L31.7,40.9V35z M50.3,19l6.2,2.7l-6.2,2.7V19z
			 M14.6,26.1l16-7.4l16,7.4L40,29l-9-3.9c-0.3-0.1-0.6-0.1-0.9,0l-9,3.9L14.6,26.1z M41.3,21.2l0-7.1l6.9-3.2v6.3
			c0,0.1,0,0.1,0,0.2l0,6.9L41.3,21.2z M13.1,10.9l5.5,2.4l-5.5,2.4V10.9z M31.7,16.8v-5.9l7.5,3.3l0,6.1L31.7,16.8z M4.7,21.8
			l24.9-10.9v5.9L12,24.9L4.7,21.8z M14.6,9.3l16-7l16.1,7.1l-6.4,3l-9.2-4c-0.1,0-0.2-0.1-0.2-0.1l-0.2-0.1l-9.4,4.1L14.6,9.3z
			 M30.2,0.1L11.5,8.3l-0.1,0.1c-0.1,0.1-0.2,0.1-0.2,0.2l-0.1,0.1c-0.1,0.2-0.2,0.4-0.2,0.6v7.4l-9.3,4.1l-0.4,0.3l-0.1,0.1
			C1.1,21.4,1,21.6,1,21.8V30c0,0.4,0.2,0.8,0.6,1l9.3,4.1l0,7.5c0,0.4,0.2,0.8,0.6,1l18.6,8.2c0.1,0.1,0.3,0.1,0.4,0.1
			c0.2,0,0.3,0,0.4-0.1l18.6-8.2c0.4-0.2,0.6-0.6,0.6-1v-7.4l9.3-4.1c0.4-0.2,0.6-0.6,0.6-1l0-8.4l0-0.1c0-0.1,0-0.2-0.1-0.3
			L60,21.1c0-0.1-0.1-0.1-0.1-0.2l-9.5-4.3l0-7.5l0-0.1c0-0.1-0.1-0.3-0.1-0.4c0-0.1-0.1-0.1-0.1-0.2c0,0-0.1-0.1-0.2-0.2L31.1,0.1
			C30.9,0,30.8,0,30.6,0C30.5,0,30.4,0,30.2,0.1"/>
	</defs>
	<clipPath id="SVGID_8_">
		<use xlink:href="#SVGID_7_"  style="overflow:visible;"/>
	</clipPath>
	
		<linearGradient id="SVGID_9_" gradientUnits="userSpaceOnUse" x1="-319.5604" y1="332.5728" x2="-319.1596" y2="332.5728" gradientTransform="matrix(126.5342 -64.0007 -64.0007 -126.5342 61725.4805 21668.4785)">
		<stop  offset="0" style="stop-color:#EA550F"/>
		<stop  offset="0.3609" style="stop-color:#D84014"/>
		<stop  offset="1" style="stop-color:#B11120"/>
	</linearGradient>
	<polygon class="st2" points="-19.9,10.6 48.2,-23.9 81.1,41.3 13.1,75.7 	"/>
</g>
</svg>
