<?xml version="1.0" encoding="utf-8"?>
<!-- Generator: Adobe Illustrator 22.0.0, SVG Export Plug-In . SVG Version: 6.00 Build 0)  -->
<svg version="1.0" id="图层_1" xmlns="http://www.w3.org/2000/svg" xmlns:xlink="http://www.w3.org/1999/xlink" x="0px" y="0px"
	 viewBox="0 0 200 71" style="enable-background:new 0 0 200 71;" xml:space="preserve">
<style type="text/css">
	.st0{fill:#FFFFFF;}
</style>
<path class="st0" d="M136.2,10.7c-6.3,0-11.5,5.2-11.5,11.5c0,2.2,0.6,4.4,1.8,6.2c1.1-0.7,2-1.6,2.7-2.6c-0.6-1.1-0.9-2.3-0.9-3.6
	c0-4.3,3.5-7.9,7.9-7.9c4.3,0,7.9,3.5,7.9,7.9c0,4.3-3.5,7.9-7.9,7.9c-1,0-2-0.2-2.9-0.6c-0.6,1.1-1.4,2.1-2.3,2.9
	c1.6,0.8,3.4,1.2,5.2,1.2c6.3,0,11.5-5.2,11.5-11.5C147.7,15.8,142.5,10.7,136.2,10.7"/>
<path class="st0" d="M110.1,22.2c0,3,1.1,5.7,3,7.7c-1.1-1.6-1.8-3.6-1.8-5.7c0-5.5,4.4-9.9,9.9-9.9c0.2,0,0.4,0,0.7,0
	c0.7,0,1.4,0.1,2.1,0.3c0.7-1.1,1.6-2.1,2.6-2.9c-1.5-0.7-3.2-1.1-4.9-1.1C115.2,10.7,110.1,15.8,110.1,22.2"/>
<path class="st0" d="M111.3,24.2c0,2.1,0.7,4.1,1.8,5.7c2.1,2.3,5.1,3.8,8.5,3.8c1.8,0,3.5-0.4,5-1.1c3.7-1.8,6.3-5.4,6.5-9.7l0-0.3
	h-2.1h-1.5l0,0.3c-0.3,4.1-3.7,7.3-7.8,7.3c-4.3,0-7.9-3.5-7.9-7.9c0-4.3,3.5-7.9,7.9-7.9c0.1,0,0.2,0,0.3,0c-0.2,0-0.4,0-0.7,0
	C115.7,14.3,111.3,18.7,111.3,24.2"/>
<rect x="102.4" y="11.7" class="st0" width="4.2" height="21.4"/>
<path class="st0" d="M161.4,11.1c-2.1,0-4,0.9-5.6,2.5l-0.7,0.7v-2.6h-4.2v21.4h4.2V22.8c0-2.9,0.4-4.8,1.1-6
	c0.8-1.2,2.1-1.9,3.9-1.9c1.7,0,2.8,0.5,3.5,1.5c0.6,0.9,1,2.5,1,4.8v12h4.2V19.9c0-3-0.6-5.2-1.7-6.5
	C165.7,11.9,163.8,11.1,161.4,11.1"/>
<rect x="172.8" y="11.7" class="st0" width="4.2" height="21.4"/>
<path class="st0" d="M200,11.7h-16.5v4h8.8l-10.9,17.3c0,0.1,0,0.1,0.1,0.1h17.8v-4h-10.2L200,11.7z"/>
<g>
	<path class="st0" d="M111.6,53c0.2-0.5,0.4-1.1,0.6-1.5l0-0.1l-0.9-0.3l0,0.1c-0.1,0.5-0.3,1-0.5,1.5c-0.2,0.5-0.5,1.1-0.7,1.6
		c-0.3,0.6-0.5,1.1-0.8,1.6c-0.3,0.5-0.5,1-0.8,1.4l-0.1,0.1l0.9,0.4l0.1-0.1c0.3-0.4,0.5-0.9,0.8-1.5c0.3-0.5,0.5-1.1,0.8-1.6
		C111.1,54.1,111.3,53.6,111.6,53z"/>
	<path class="st0" d="M108.8,52.5l0.6-0.6l-0.1-0.1c-0.2-0.2-0.3-0.4-0.5-0.6l-0.6-0.7c-0.2-0.2-0.4-0.5-0.6-0.7
		c-0.2-0.2-0.4-0.4-0.5-0.6l-0.1-0.1l-0.5,0.5v-2.6h2.6v-0.9h-2.6v-3.9h-1v3.9h-2.9v0.9h2.8c-0.2,0.5-0.3,1.1-0.6,1.6
		c-0.2,0.6-0.5,1.2-0.8,1.8c-0.3,0.6-0.6,1.2-0.9,1.7c-0.3,0.6-0.6,1.1-0.9,1.5l0,0.1l0.5,1l0.1-0.2c0.3-0.4,0.6-0.8,0.8-1.3
		c0.3-0.5,0.5-1,0.8-1.5c0.3-0.5,0.5-1.1,0.7-1.6c0.1-0.3,0.3-0.6,0.4-1v10.2h1v-9.6c0.1,0.1,0.3,0.3,0.5,0.5
		c0.2,0.2,0.4,0.4,0.6,0.7c0.2,0.2,0.4,0.5,0.6,0.7C108.4,52,108.6,52.2,108.8,52.5L108.8,52.5z"/>
	<path class="st0" d="M109,49.4h5v7.3c0,0.2,0,0.4-0.1,0.6c0,0.1-0.1,0.3-0.2,0.3c-0.1,0.1-0.2,0.1-0.4,0.2c-0.2,0-0.4,0.1-0.7,0.1
		h-1.9l0.2,1h1.9c0.3,0,0.6,0,0.9-0.1c0.3-0.1,0.5-0.2,0.6-0.3c0.2-0.1,0.3-0.3,0.3-0.6c0.1-0.2,0.1-0.5,0.1-0.9v-7.6h5.2v-1H109
		V49.4z"/>
	<path class="st0" d="M119.4,55.9c-0.2-0.5-0.5-1.1-0.7-1.7c-0.3-0.6-0.5-1.1-0.8-1.7c-0.2-0.5-0.5-1-0.6-1.4l0-0.1l-0.8,0.4
		l0.7,1.5c0.2,0.5,0.5,1.1,0.7,1.7c0.3,0.6,0.5,1.1,0.7,1.7c0.2,0.5,0.4,1,0.6,1.4l0,0.1l0.9-0.4l0-0.1
		C119.9,56.9,119.7,56.5,119.4,55.9z"/>
	<rect x="109.9" y="43.8" class="st0" width="9.4" height="1"/>
	<path class="st0" d="M132.2,51.2c0,0.1-0.1,0.2-0.1,0.3l-0.1,0.4c-0.1,0.4-0.3,0.8-0.4,1.3c-0.2,0.5-0.3,1-0.5,1.5l-0.5,1.5
		c-0.2,0.5-0.3,0.9-0.4,1.2c-0.1,0.4-0.2,0.6-0.3,0.7l0,0.1l1,0.3l0-0.1c0-0.1,0.1-0.4,0.2-0.7c0.1-0.4,0.2-0.8,0.4-1.2
		c0.2-0.5,0.3-1,0.5-1.5c0.2-0.5,0.3-1,0.5-1.5c0.2-0.5,0.3-0.9,0.4-1.3l0.3-0.8l-0.9-0.3L132.2,51.2z"/>
	<path class="st0" d="M141.7,53.6h4.3v-0.9h-4.3v-2.8h4.3V49h-4.3v-2.9h4.7v-0.9H142l0.7-0.5l-0.1-0.1c-0.1-0.2-0.2-0.3-0.4-0.6
		c-0.2-0.2-0.3-0.4-0.5-0.7l-0.1-0.1c-0.2-0.2-0.3-0.4-0.5-0.6c-0.2-0.2-0.4-0.5-0.6-0.7l-0.1-0.1l-0.8,0.5l0.1,0.1
		c0.2,0.2,0.3,0.4,0.5,0.7l0.6,0.7c0.2,0.2,0.4,0.5,0.5,0.7c0.2,0.2,0.3,0.4,0.4,0.6l0.1,0.1h-5.3c0.2-0.5,0.4-1,0.6-1.5
		c0.2-0.5,0.3-1.1,0.5-1.6l0-0.1l-1-0.1l0,0.1c-0.4,1.4-0.9,2.8-1.5,4.2c-0.7,1.4-1.5,2.6-2.5,3.8l-0.1,0.1l0.6,0.8l0.1-0.1
		c0.4-0.5,0.8-1.1,1.2-1.6c0.3-0.4,0.6-0.9,0.9-1.4v11.5h1v-1.7h10.2v-0.9h-4.9V53.6z M140.8,53.6v3.1h-4.3v-3.1H140.8z M140.8,49.9
		v2.8h-4.3v-2.8H140.8z M140.8,46.2V49h-4.3v-2.9H140.8z"/>
	<path class="st0" d="M130.6,44.3c0.2,0.4,0.5,0.9,0.7,1.3c0.2,0.5,0.5,0.9,0.7,1.4c0.2,0.4,0.4,0.8,0.5,1.1l0,0.1l0.9-0.4l0-0.1
		c-0.2-0.3-0.3-0.7-0.6-1.1c-0.2-0.4-0.5-0.9-0.7-1.3c-0.2-0.4-0.5-0.9-0.7-1.3c-0.2-0.4-0.4-0.8-0.6-1l-0.1-0.1l-0.9,0.4l0.1,0.1
		C130.2,43.6,130.3,43.9,130.6,44.3z"/>
	<path class="st0" d="M157.5,43.7c0.3,0.2,0.6,0.4,0.9,0.6c0.3,0.2,0.6,0.4,0.9,0.6c0.3,0.2,0.5,0.4,0.8,0.5l0.1,0.1l0.5-0.8
		l-0.1-0.1c-0.2-0.1-0.4-0.3-0.7-0.5c-0.3-0.2-0.6-0.4-0.9-0.6c-0.3-0.2-0.6-0.4-0.9-0.6c-0.3-0.2-0.5-0.4-0.7-0.5l-0.1-0.1
		l-0.5,0.7l0.1,0.1C156.9,43.3,157.2,43.5,157.5,43.7z"/>
	<path class="st0" d="M161.6,47c0.7-0.7,1.3-1.5,1.9-2.3h7.4c-0.1,0.1-0.1,0.3-0.2,0.4c-0.1,0.2-0.3,0.4-0.4,0.6
		c-0.1,0.2-0.3,0.4-0.4,0.5c-0.1,0.2-0.3,0.3-0.3,0.4l-0.1,0.1l0.8,0.3l0.1-0.1c0.1-0.1,0.2-0.3,0.4-0.5c0.1-0.2,0.3-0.4,0.4-0.6
		c0.2-0.2,0.3-0.4,0.4-0.7c0.1-0.2,0.2-0.4,0.3-0.6l0-0.8H164c0.3-0.5,0.6-1.1,0.8-1.6l0.1-0.1l-0.9-0.2l0,0.1
		c-0.4,0.8-0.8,1.6-1.3,2.3c-0.5,0.7-1.1,1.4-1.7,2.1l-0.1,0.1L161.6,47L161.6,47z"/>
	<path class="st0" d="M170.6,48.8c-0.7-0.2-1.3-0.4-1.8-0.7c-0.5-0.3-1-0.5-1.3-0.8c-0.3-0.3-0.6-0.6-0.8-1l0-0.1
		c0-0.1,0.1-0.2,0.1-0.4c0-0.1,0-0.3,0.1-0.4l0-0.1h-1l0,0.1c0,0.1-0.1,0.2-0.1,0.4c0,0.2-0.1,0.3-0.1,0.4c-0.1,0.4-0.2,0.7-0.5,1
		c-0.2,0.3-0.6,0.6-1.1,0.9c-0.5,0.3-1.1,0.5-1.8,0.8c-0.7,0.2-1.6,0.5-2.6,0.7l-0.1,0l0.4,0.8l0.1,0c1.7-0.4,3.1-0.9,4.1-1.4
		c0.9-0.5,1.6-1,2-1.7c0.2,0.3,0.5,0.6,0.8,0.9c0.4,0.3,0.8,0.6,1.4,0.8c0.5,0.3,1.2,0.5,1.9,0.7c0.7,0.2,1.5,0.4,2.4,0.6l0.1,0
		l0.4-0.9l-0.1,0C172.1,49.2,171.3,49,170.6,48.8z"/>
	<path class="st0" d="M156.6,50.2c0.2-0.1,0.5-0.3,0.8-0.6c0.4-0.3,0.8-0.6,1.2-1c0.4-0.3,0.8-0.7,1.2-1l0.1-0.1
		c0.3-0.2,0.5-0.4,0.6-0.5l0.1-0.1l-0.5-0.7l-0.1,0.1c-0.1,0.1-0.2,0.2-0.4,0.3c-0.2,0.2-0.4,0.4-0.7,0.6l-0.8,0.7
		c-0.3,0.2-0.6,0.4-0.8,0.6c-0.3,0.2-0.5,0.4-0.7,0.5c-0.2,0.2-0.4,0.3-0.5,0.4l-0.1,0.1l0.5,0.8L156.6,50.2z"/>
	<path class="st0" d="M170.8,57.5c-0.7-0.3-1.4-0.5-2.2-0.8c-0.7-0.3-1.5-0.6-2.2-0.8c-0.7-0.2-1.3-0.5-1.7-0.6
		c0.2-0.4,0.3-0.9,0.3-1.3l0.1-1.3h-1l-0.1,1.3c0,0.5-0.2,0.9-0.4,1.2c-0.2,0.4-0.6,0.7-1.2,1.1c-0.6,0.3-1.3,0.7-2.3,1
		c-1,0.3-2.2,0.6-3.6,1l-0.1,0l0.4,0.9l0.1,0c1-0.3,1.9-0.5,2.7-0.7c0.8-0.2,1.5-0.5,2.1-0.7c0.6-0.3,1.1-0.5,1.5-0.8
		c0.4-0.3,0.7-0.5,1-0.8c0.5,0.2,1.1,0.4,1.8,0.7c0.7,0.3,1.5,0.6,2.2,0.9c0.8,0.3,1.5,0.6,2.2,0.9l1.9,0.8l0.4-0.9l-0.1,0
		C172.1,58,171.5,57.7,170.8,57.5z"/>
	<polygon class="st0" points="170.4,55.9 170.4,51 158.8,51 158.8,55.9 159.7,55.9 159.7,51.9 169.4,51.9 169.4,55.9 	"/>
	<path class="st0" d="M199.9,55.6c-0.9-0.7-1.7-1.4-2.4-2.1c-0.7-0.7-1.4-1.4-2-2.2c-0.6-0.8-1.1-1.6-1.6-2.4
		c-0.4-0.8-0.8-1.6-1.2-2.5h6.6v-1h-7.7V42h-1v3.5H183v1h6.5c-0.3,0.9-0.7,1.7-1.2,2.5c-0.5,0.8-1,1.6-1.5,2.4
		c-0.6,0.8-1.2,1.5-2,2.2c-0.7,0.7-1.6,1.5-2.5,2.3l-0.1,0.1l0.7,0.8l0.1-0.1c0.9-0.8,1.8-1.7,2.6-2.5c0.8-0.8,1.4-1.6,2-2.4
		c0.6-0.8,1.1-1.7,1.6-2.5c0.4-0.8,0.9-1.8,1.2-2.7h0.2v8.4h-4.4v0.9h4.4v3.7h1v-3.7h4.5v-0.9h-4.5v-8.4h0.2c0.7,2,1.7,3.8,2.9,5.4
		c1.2,1.7,2.8,3.2,4.5,4.5l0.1,0.1L199.9,55.6L199.9,55.6z"/>
</g>
<path class="st0" d="M18.5,57.3l8.9-3.9l12,5.2c0.4,0.2,0.8,0.2,1.1,0l12-5.2l8.9,3.9l-21.4,9.4L18.5,57.3z M56,51.8l7.4-3.2V55
	L56,51.8z M28.8,50.9l0-7.9l9.7,4.3v7.9L28.8,50.9z M16.5,37.5l9.5,4.2l0,9.2L16.5,55L16.5,37.5z M30.9,40.8l9-3.9l9,3.9l-9,4
	L30.9,40.8z M3.2,39.6l0-7.9l10.4,4.6v8L3.2,39.6z M41.3,47.2l35.2-15.5v8L41.3,55.1V47.2z M66.2,25.9l8.3,3.6l-8.3,3.6V25.9z
	 M18.5,35.3l21.4-9.9l21.4,9.9l-8.9,3.9L40.5,34c-0.4-0.2-0.8-0.2-1.1,0l-12,5.2L18.5,35.3z M54.2,28.8l0-9.5l9.2-4.3v8.4
	c0,0.1,0,0.2,0,0.3l0,9.3L54.2,28.8z M16.5,15l7.4,3.3l-7.4,3.2V15z M41.3,22.9V15l10,4.4l0,8.2L41.3,22.9z M5.3,29.5L38.5,15v7.9
	L15.1,33.8L5.3,29.5z M18.6,12.9l21.3-9.4l21.4,9.4l-8.6,4l-12.3-5.4c-0.1-0.1-0.3-0.1-0.3-0.1l-0.3-0.1l-12.5,5.4L18.6,12.9z
	 M39.4,0.6l-24.9,11l-0.2,0.1c-0.1,0.1-0.2,0.2-0.3,0.3l-0.1,0.2c-0.1,0.2-0.2,0.5-0.2,0.7v9.9L1.2,28.2l-0.5,0.4l-0.1,0.2
	c-0.1,0.2-0.2,0.5-0.2,0.7v11c0,0.6,0.3,1.1,0.8,1.3l12.4,5.4l0,10c0,0.6,0.3,1.1,0.8,1.3l24.8,10.9c0.2,0.1,0.4,0.1,0.6,0.1
	c0.2,0,0.4,0,0.6-0.1l24.9-10.9c0.6-0.3,0.8-0.9,0.8-1.4v-9.9l12.4-5.4c0.5-0.2,0.8-0.7,0.8-1.3l0-11.2l0-0.1c0-0.1-0.1-0.3-0.1-0.4
	l-0.1-0.2c-0.1-0.1-0.1-0.1-0.2-0.2l-12.7-5.7l0-10l0-0.1c0-0.2-0.1-0.4-0.2-0.5c0-0.1-0.1-0.1-0.2-0.2c-0.1-0.1-0.1-0.2-0.3-0.3
	l-25-11c-0.2-0.1-0.4-0.1-0.6-0.1C39.7,0.5,39.5,0.5,39.4,0.6"/>
</svg>
