<svg fill="#DD5418" xmlns="http://www.w3.org/2000/svg" xmlns:xlink="http://www.w3.org/1999/xlink" version="1.1" x="0px" y="0px" viewBox="0 0 65 65" enable-background="new 0 0 65 65" xml:space="preserve"><g><path d="M53.5,40.3V-0.3H0.2v59.1c0,3.5,2.9,6.4,6.4,6.4h51.7c3.5,0,6.4-2.9,6.4-6.4V40.3H53.5z M6.6,63.8c-2.7,0-4.9-2.2-4.9-4.9   V1.3H52v39V41v17.8c0,2,0.9,3.7,2.3,4.9H6.6z M63.3,58.9c0,2.7-2.2,4.9-4.9,4.9c-2.7,0-4.9-2.2-4.9-4.9V41.8h9.8V58.9z"></path><rect x="57.6" y="58.4" width="1.5" height="1.5"></rect><rect x="57.6" y="44.9" width="1.5" height="1.5"></rect><rect x="57.6" y="53.9" width="1.5" height="1.5"></rect><rect x="57.6" y="49.4" width="1.5" height="1.5"></rect><path d="M34.6,24.7c-0.5-0.3-1-0.4-1.5-0.4c-1.4,0-2.6,1-2.9,2.3H24c-0.3-1.3-1.5-2.3-2.9-2.3c-1.7,0-3,1.3-3,3   c0,0.6,0.2,1.1,0.4,1.5l-7.1,7.1c-0.5-0.3-1-0.4-1.5-0.4c-1.7,0-3,1.3-3,3c0,1.7,1.3,3,3,3c1.7,0,3-1.3,3-3c0-0.5-0.2-1-0.4-1.5   l7.1-7.1c0.4,0.3,1,0.4,1.5,0.4c1.3,0,2.5-0.9,2.9-2.2h6.2c0.4,1.3,1.5,2.2,2.9,2.2c1.7,0,3-1.3,3-3c0-0.5-0.2-1.1-0.4-1.5l6.8-6.8   c0.4,0.3,1,0.4,1.5,0.4c1.7,0,3-1.3,3-3c0-1.7-1.3-3-3-3c-1.7,0-3,1.3-3,3c0,0.6,0.2,1.1,0.4,1.5L34.6,24.7z M9.9,39.9   c-0.8,0-1.5-0.7-1.5-1.5c0-0.8,0.7-1.5,1.5-1.5c0.8,0,1.5,0.7,1.5,1.5C11.4,39.3,10.8,39.9,9.9,39.9z M21.1,28.7   c-0.4,0-0.8-0.2-1-0.4c-0.3-0.3-0.5-0.7-0.5-1.1c0-0.8,0.7-1.5,1.5-1.5c0.8,0,1.5,0.7,1.5,1.5C22.6,28.1,21.9,28.7,21.1,28.7z    M33.1,28.7c-0.8,0-1.5-0.7-1.5-1.5c0-0.8,0.7-1.5,1.5-1.5c0.4,0,0.8,0.2,1.1,0.4c0.3,0.3,0.4,0.7,0.4,1.1   C34.6,28.1,33.9,28.7,33.1,28.7z M44.1,14.8c0.8,0,1.5,0.7,1.5,1.5c0,0.8-0.7,1.5-1.5,1.5c-0.8,0-1.5-0.7-1.5-1.5   C42.6,15.5,43.2,14.8,44.1,14.8z"></path><path d="M47.8,32.1h-8.5V57h-2.7V36.1h-8.5V57h-2.7v-17h-8.5v17h-2.7V45.1H5.7V57H4v1.5h1.7h8.5h2.7h8.5h2.7h8.5h2.7h8.5h1.7V57   h-1.7V32.1z M7.2,57V46.6h5.5V57H7.2z M18.4,57V41.4h5.5V57H18.4z M29.6,57V37.6h5.5V57H29.6z M40.8,57V33.6h5.5V57H40.8z"></path><rect x="6.4" y="5.8" width="28.3" height="1.5"></rect><rect x="6.4" y="11.2" width="20.7" height="1.5"></rect></g></svg>